
<svg width="40" height="40" viewBox="0 0 40 40" fill="none" xmlns="http://www.w3.org/2000/svg">
<path d="M19.4127 21.9125L22.708 18.6172C23.9834 19.2957 25.4025 19.6595 26.8471 19.6781C28.2165 19.6814 29.5603 19.3062 30.7299 18.5938C34.3346 16.4063 36.2642 11.3235 35.8861 4.98595C35.8727 4.7566 35.7756 4.54015 35.6131 4.3777C35.4507 4.21524 35.2342 4.1181 35.0049 4.1047C28.6674 3.73283 23.5799 5.6672 21.3971 9.26095C19.9564 11.6391 19.9595 14.5281 21.3752 17.2844L18.7502 19.9235L16.4627 17.6375C17.4502 15.6063 17.4236 13.4813 16.358 11.7219C14.7205 9.01877 10.9377 7.56877 6.22674 7.84533C5.99738 7.85872 5.78093 7.95587 5.61848 8.11832C5.45603 8.28078 5.35888 8.49723 5.34549 8.72658C5.06892 13.4375 6.51892 17.2188 9.21892 18.8578C10.1127 19.4037 11.1404 19.6909 12.1877 19.6875C13.2153 19.6752 14.2268 19.4294 15.1455 18.9688L17.4236 21.25L15.8611 22.8125H8.75017C8.50153 22.8125 8.26308 22.9113 8.08726 23.0871C7.91145 23.2629 7.81267 23.5014 7.81267 23.75C7.81267 23.9987 7.91145 24.2371 8.08726 24.4129C8.26308 24.5887 8.50153 24.6875 8.75017 24.6875H10.497L12.6174 34.2188C12.7218 34.707 12.9912 35.1444 13.3801 35.4574C13.7691 35.7704 14.254 35.9399 14.7533 35.9375H25.2486C25.7476 35.9396 26.2321 35.7699 26.6208 35.4569C27.0095 35.1439 27.2786 34.7067 27.383 34.2188L29.5033 24.6875H31.2502C31.4988 24.6875 31.7373 24.5887 31.9131 24.4129C32.0889 24.2371 32.1877 23.9987 32.1877 23.75C32.1877 23.5014 32.0889 23.2629 31.9131 23.0871C31.7373 22.9113 31.4988 22.8125 31.2502 22.8125H18.5127L19.4127 21.9125ZM23.0064 10.2406C24.7252 7.39377 28.8252 5.81408 34.0564 5.94377C34.1861 11.1735 32.6064 15.2688 29.7596 16.9938C27.8377 18.1563 25.5267 18.075 23.2299 16.7703C21.9236 14.4735 21.8424 12.1625 23.0064 10.2406ZM14.622 17.1156C13.0595 17.9844 11.497 18.0328 10.1939 17.2469C8.24705 16.0735 7.14861 13.2813 7.18767 9.68752C10.7814 9.6422 13.5752 10.7469 14.7533 12.6938C15.5392 13.9906 15.4908 15.5563 14.622 17.1219V17.1156ZM27.5814 24.6875L25.5502 33.8172C25.5349 33.8867 25.4964 33.9488 25.441 33.9934C25.3856 34.038 25.3166 34.0624 25.2455 34.0625H14.7533C14.6808 34.0642 14.6101 34.0407 14.553 33.9959C14.496 33.9512 14.4564 33.888 14.4408 33.8172L12.4189 24.6875H27.5814Z" fill="#6ACB92"/>
 <style>
        path { fill: #000; }
        @media (prefers-color-scheme: dark) {
            path { fill: #FFF; }
        }
    </style>
</svg>

